 <svg xmlns="http://www.w3.org/2000/svg" id="Capa_2" data-name="Capa 2" viewBox="0 0 183.94 158.01"><defs><style>      .cls-1 {        fill: #388036;      }      .cls-1, .cls-2, .cls-3 {        stroke-width: 0px;      }      .cls-2 {        fill: none;      }      .cls-3 {        fill: #fff;      }    </style></defs><g id="Capa_1-2" data-name="Capa 1"><g><rect class="cls-2" x="0" width="183.94" height="158.01"/><path class="cls-1" d="M125.18,122.24c-.66-1.3-1.51-2.44-1.92-3.91-.43-1.52-.08-3.02.77-4.19-1.27-.77-2.18-2.11-2.2-4.04-.03-3.46-.37-6.92-.39-10.38-.03-3.94,3.68-5.45,6.59-4.58,2.51-1.41,5.26-2,7.98-2.87,3.27-1.04,5.29-3.13,8.27-4.62.1-.05.2-.09.3-.13.31-2.56.48-5.17.48-7.82,0-35.7-28.94-64.64-64.64-64.64S15.77,44,15.77,79.7s28.94,64.64,64.64,64.64c18.26,0,34.73-7.59,46.48-19.76-.76-.61-1.37-1.43-1.71-2.35Z"/><path class="cls-3" d="M172.31,95.3l-21.55-10.77.12-1.51c.05-.6.08-1.21.1-1.81.02-.64.04-1.24.04-1.86v-.35c0-38.74-31.51-70.25-70.25-70.25S10.51,40.26,10.51,79s31.52,70.26,70.26,70.26c15.7,0,30.51-5.02,42.82-14.52.44-.35.89-.69,1.32-1.04.45-.37.88-.72,1.3-1.09l1.86-1.61,1.44,2c.32.45.65.89.99,1.33,4.24,5.48,9.57,9.84,15.82,12.97.57.29,1.25.29,1.82,0,15.61-7.81,25.3-23.49,25.3-40.93v-9.24c0-.77-.43-1.48-1.13-1.83ZM122.15,121.23c.19.59.4,1.17.62,1.75.21.59.44,1.15.68,1.7l.28.65-.52.48c-.46.43-.93.84-1.41,1.25-.34.3-.7.59-1.05.88l-.36.3c-11.31,9.12-25.01,13.94-39.62,13.94-34.83,0-63.17-28.34-63.17-63.18S45.94,15.83,80.77,15.83s62.89,28.11,63.16,62.65c.01.14.01.33.01.52,0,.46-.01.91-.02,1.38v.1c-.02.65-.05,1.33-.09,2.03l-.04.58-22.2,11.09c-1.12.56-1.82,1.69-1.82,2.95v9.24c0,5.09.8,10.09,2.38,14.86ZM169.36,106.37c0,14.72-7.5,28.03-20.06,35.63l-2.08,1.25-2.07-1.26c-7.6-4.6-13.4-11.3-16.79-19.36-2.16-5.13-3.25-10.6-3.25-16.26v-7.98l22.12-11.06,22.13,11.06v7.98Z"/><path class="cls-3" d="M80.11,106.62c-3.99,0-7.7-.71-11.13-2.12-3.43-1.41-6.42-3.38-8.97-5.9-2.55-2.52-4.54-5.46-5.98-8.82-1.44-3.36-2.16-6.98-2.16-10.86s.71-7.57,2.12-10.9c1.41-3.33,3.39-6.25,5.94-8.74,2.55-2.5,5.53-4.44,8.93-5.83,3.41-1.39,7.1-2.08,11.09-2.08s7.76.69,11.17,2.08c3.41,1.39,6.38,3.33,8.93,5.83,2.55,2.5,4.53,5.43,5.94,8.78,1.41,3.36,2.12,7,2.12,10.94s-.71,7.51-2.12,10.86c-1.41,3.36-3.39,6.28-5.94,8.78-2.55,2.5-5.51,4.45-8.9,5.87-3.38,1.41-7.07,2.12-11.05,2.12ZM79.96,95.8c3.23,0,6.03-.71,8.4-2.12,2.37-1.41,4.23-3.39,5.56-5.94,1.34-2.55,2.01-5.49,2.01-8.82,0-2.52-.38-4.81-1.14-6.85s-1.84-3.81-3.26-5.3c-1.41-1.49-3.09-2.62-5.03-3.41-1.94-.78-4.13-1.17-6.55-1.17-3.18,0-5.96.69-8.33,2.08-2.37,1.39-4.23,3.33-5.56,5.83-1.34,2.5-2.01,5.44-2.01,8.82,0,2.52.38,4.82,1.14,6.89.76,2.07,1.84,3.85,3.26,5.34,1.41,1.49,3.09,2.64,5.03,3.44,1.94.81,4.1,1.21,6.47,1.21ZM100.71,106.71l-18.49-18.49c-1.79-1.79-1.79-4.7,0-6.49l.39-.39c1.79-1.79,4.7-1.79,6.49,0l18.49,18.49c1.79,1.79,1.79,4.7,0,6.49l-.39.39c-1.79,1.79-4.7,1.79-6.49,0Z"/><g><path class="cls-3" d="M143.78,123.19l-7.47-7.37,1.82-1.82,7.16,7.19h-1.32l13.53-14.84,1.85,1.82-13.96,15.03h-1.6Z"/><path class="cls-3" d="M145.39,124.91h-1.6c-.37,0-.73-.47-.99-.72l-7.47-7.37c-.26-.26-.41-.61-.41-.98s.14-.72.41-.99l1.82-1.82c.26-.26.61-.41.98-.41h0c.37,0,.72.15.98.41l5.44,5.46,11.92-13.08c.25-.28.61-.44.99-.45.4,0,.74.13,1.01.4l1.85,1.82c.54.53.56,1.38.04,1.93l-13.96,15.03c-.26.28-.62.77-1,.77Z"/></g></g></g></svg>